# xmcd CD database file
#
# Track frame offsets:
#	183
#	9258
#	22523
#	33185
#	42873
#	55520
#	66438
#	76078
#	85450
#	97493
#	110655
#	122545
#
# Disc length: 1770 seconds
#
# Revision: 0
# Processed by: cddbd v1.5PL3 Copyright (c) Steve Scherf et al.
# Submitted via: CDex 1.50beta9
#
DISCID=8906e80c
DTITLE=The Beatles - The Beatles Vol.5
DYEAR=1900
DGENRE=ロック (一般)
TTITLE0=Please Please Me
TTITLE1=I Saw Her Standing There
TTITLE2=Love Me Do
TTITLE3=P.S I Love You
TTITLE4=Roll Over Beethoven
TTITLE5=She Loves You
TTITLE6=Long Tall Sally
TTITLE7=All I've Got To Do
TTITLE8=Rock And Roll Music
TTITLE9=Day Tripper
TTITLE10=MR. Moonlight
TTITLE11=Paperback Writer
EXTD=
EXTT0=
EXTT1=
EXTT2=
EXTT3=
EXTT4=
EXTT5=
EXTT6=
EXTT7=
EXTT8=
EXTT9=
EXTT10=
EXTT11=
PLAYORDER=
